<svg xmlns="http://www.w3.org/2000/svg" viewBox="0 0 1200 600" fill="none">
  <defs>
    <pattern id="grid" x="0" y="0" width="24" height="24" patternUnits="userSpaceOnUse">
      <circle cx="3" cy="3" r="2" fill="#e5e7eb" opacity="0.25" />
    </pattern>
  </defs>
  <rect width="1200" height="600" fill="url(#grid)" />
  <g fill="#e5e7eb" fill-opacity="0.9">
    <path d="M94 243c22-25 67-77 113-89 46-12 85 6 117 24 32 19 58 39 66 74 7 34-2 73-27 92-26 20-71 21-116 14-44-6-87-21-115-44-27-23-40-55-38-71z"/>
    <path d="M222 350c15-15 53-13 78 8 25 20 38 60 25 84-12 24-50 31-77 16-27-16-45-54-41-75 3-22 21-19 15-33z"/>
    <path d="M333 232c22-18 65-51 131-64 67-14 157-7 213 16 57 23 80 63 109 100 30 38 66 73 66 103 0 31-37 59-90 71-53 11-123 6-191-10-67-17-132-45-183-77-50-33-87-70-84-98 2-28 40-43 29-41z"/>
    <path d="M426 377c26-14 70-16 116-10 46 6 94 21 124 38 29 16 40 35 35 51-5 16-26 29-61 36-34 7-81 7-120 0-40-7-73-22-92-39-18-17-22-36-10-51 11-15 36-26 8-25z"/>
    <path d="M692 394c10-13 38-36 68-43 29-7 61 2 85 13 23 11 38 24 51 41 14 16 28 36 24 51-3 16-21 28-43 32-22 5-49 2-72-6-23-7-42-19-56-34-14-14-23-32-27-47-4-16-3-30 10-7z"/>
    <path d="M640 229c9-18 27-48 59-69 32-22 78-34 118-35 39-1 72 9 109 19 38 11 80 22 94 48 14 26 0 66-24 89-25 23-59 28-98 26-38-2-82-11-118-26-36-15-64-35-92-56-28-20-55-42-48-51z"/>
    <path d="M949 270c17-16 43-47 75-61 33-13 73-9 103 2 31 12 52 30 58 53 7 24-2 52-24 71-21 18-54 28-87 32-34 3-68 0-95-12-27-11-47-30-53-50-6-21 5-42 23-35z"/>
    <path d="M833 407c15-7 49-9 73 4 24 12 37 39 29 58-7 19-34 29-59 31-26 1-49-6-68-17-20-12-37-29-38-46-1-18 13-35 32-43 19-9 34-12 31 13z"/>
  </g>
</svg>
