<svg xmlns="http://www.w3.org/2000/svg" viewBox="0 0 64 64" fill="none">
  <circle cx="46" cy="12" r="3" fill="currentColor" />
  <path d="M34 18 36 9l8 2" stroke="currentColor" stroke-width="4" stroke-linecap="round" stroke-linejoin="round" />
  <path d="M32 14c-11 0-20 7.3-20 16.5S21 47 32 47s20-7.3 20-16.5S43 14 32 14Z" stroke="currentColor" stroke-width="5" />
  <circle cx="24" cy="32" r="3" fill="currentColor" />
  <circle cx="40" cy="32" r="3" fill="currentColor" />
  <path d="M24 38c2 2 6 3 8 3s6-1 8-3" stroke="currentColor" stroke-width="4" stroke-linecap="round" />
  <path d="M12 32c-3-1-4.5 1-4.5 2.5S9 38 12 37" stroke="currentColor" stroke-width="4" stroke-linecap="round" />
  <path d="M52 37c3 1 4.5-1 4.5-2.5S55 31 52 32" stroke="currentColor" stroke-width="4" stroke-linecap="round" />
</svg>
